<svg xmlns="http://www.w3.org/2000/svg" width="164" height="314" viewBox="0 0 164 314" fill="none" role="img" aria-label="Eldrun">
  <title>Eldrun installer sidebar</title>
  <defs>
    <!-- Brand ramp, same colors as the bg-header ramp in themes.css. -->
    <linearGradient id="eldrun-coaster" x1="0" y1="0" x2="164" y2="314" gradientUnits="userSpaceOnUse">
      <stop offset="0" stop-color="#101624" />
      <stop offset="0.5" stop-color="#16213a" />
      <stop offset="1" stop-color="#241735" />
    </linearGradient>
  </defs>
  <rect x="0" y="0" width="164" height="314" fill="url(#eldrun-coaster)" />
  <!-- Glyph: the 512-unit icon artwork scaled to 108px, centered horizontally. -->
  <g transform="translate(28,62) scale(0.211)">
    <g stroke="#FFFFFF" stroke-linecap="round" stroke-linejoin="round" fill="none">
      <path d="M 214 491 A 239 239 0 1 1 298 491" stroke-width="13" />
      <path d="M 256 161 L 256 499" stroke-width="13" />
      <path d="M 165 176 L 165 238 L 233 306 L 233 440 L 222 483" stroke-width="13" />
      <path d="M 98 235 L 98 289 L 134.1 325.1 M 155 343.7 L 233 405" stroke-width="13" />
      <circle cx="165" cy="162" r="14" stroke-width="11" />
      <circle cx="98"  cy="221" r="14" stroke-width="11" />
      <circle cx="144" cy="335" r="14" stroke-width="11" />
      <path d="M 347 176 L 347 238 L 279 306 L 279 440 L 290 483" stroke-width="13" />
      <path d="M 414 235 L 414 289 L 377.9 325.1 M 357 343.7 L 279 405" stroke-width="13" />
      <circle cx="347" cy="162" r="14" stroke-width="11" />
      <circle cx="414" cy="221" r="14" stroke-width="11" />
      <circle cx="368" cy="335" r="14" stroke-width="11" />
    </g>
    <path d="M 256 61 C 261 92 268 96 292 101 C 268 106 261 110 256 142 C 251 110 244 106 220 101 C 244 96 251 92 256 61 Z" fill="#C79A45" />
  </g>
  <text x="82" y="215" text-anchor="middle" font-family="Inter, 'DejaVu Sans', sans-serif" font-size="27" font-weight="600" fill="#FFFFFF" letter-spacing="0.6">Eldrun</text>
  <text x="82" y="238" text-anchor="middle" font-family="Inter, 'DejaVu Sans', sans-serif" font-size="11" font-weight="400" fill="#9AA6C0" letter-spacing="0.4">Terminal workspace</text>
  <rect x="52" y="256" width="60" height="1" fill="#C79A45" opacity="0.7" />
</svg>
